<svg width="20" height="20" viewBox="0 0 20 20" fill="none" xmlns="http://www.w3.org/2000/svg">
<path fill-rule="evenodd" clip-rule="evenodd" d="M5.83333 4.70833C5.21201 4.70833 4.70833 5.21201 4.70833 5.83333V14.1667C4.70833 14.788 5.21201 15.2917 5.83333 15.2917H7.91667V16.375H5.83333C4.6137 16.375 3.625 15.3863 3.625 14.1667V5.83333C3.625 4.6137 4.6137 3.625 5.83333 3.625V4.70833ZM13.625 5.83333C13.625 5.21201 13.1213 4.70833 12.5 4.70833V3.625C13.7196 3.625 14.7083 4.6137 14.7083 5.83333V7.91667H13.625V5.83333Z" fill="#747782"/>
<path fill-rule="evenodd" clip-rule="evenodd" d="M10.5003 16.6667C9.76395 16.6667 9.16699 16.0698 9.16699 15.3334L9.16699 10.5001C9.16699 9.7637 9.76395 9.16675 10.5003 9.16675L15.3337 9.16675C16.07 9.16675 16.667 9.7637 16.667 10.5001L16.667 15.3334C16.667 16.0698 16.07 16.6667 15.3337 16.6667L10.5003 16.6667ZM10.167 15.3334C10.167 15.5175 10.3162 15.6667 10.5003 15.6667L15.3337 15.6667C15.5178 15.6667 15.667 15.5175 15.667 15.3334L15.667 10.5001C15.667 10.316 15.5178 10.1667 15.3337 10.1667L10.5003 10.1667C10.3162 10.1667 10.167 10.316 10.167 10.5001L10.167 15.3334Z" fill="#747782"/>
<path fill-rule="evenodd" clip-rule="evenodd" d="M6.66699 3.83333C6.66699 3.09695 7.26395 2.5 8.00033 2.5L10.3337 2.5C11.07 2.5 11.667 3.09695 11.667 3.83333L11.667 4.5C11.667 5.23638 11.07 5.83333 10.3337 5.83333L8.00033 5.83333C7.26395 5.83333 6.66699 5.23638 6.66699 4.5L6.66699 3.83333ZM8.00033 3.5C7.81623 3.5 7.66699 3.64924 7.66699 3.83333L7.66699 4.5C7.66699 4.6841 7.81623 4.83333 8.00033 4.83333L10.3337 4.83333C10.5178 4.83333 10.667 4.68409 10.667 4.5L10.667 3.83333C10.667 3.64924 10.5178 3.5 10.3337 3.5L8.00033 3.5Z" fill="#747782"/>
</svg>
